<svg width="120" height="120" viewBox="0 0 120 120" xmlns="http://www.w3.org/2000/svg">
  <!-- Mushroom Cap -->
  <path d="M20 40 Q20 20 40 20 Q80 20 100 40 Q100 60 80 60 Q40 60 20 40 Z" 
        fill="#ff6b35" stroke="#000000" stroke-width="3"/>
  
  <!-- Cap Underside -->
  <path d="M25 45 Q25 35 40 35 Q80 35 95 45 Q95 55 80 55 Q40 55 25 45 Z" 
        fill="#ff8c42" stroke="#000000" stroke-width="2"/>
  
  <!-- Cap Spots -->
  <circle cx="35" cy="30" r="4" fill="#ff8c42" stroke="#000000" stroke-width="2"/>
  <circle cx="55" cy="25" r="6" fill="#ff8c42" stroke="#000000" stroke-width="2"/>
  <circle cx="75" cy="30" r="5" fill="#ff8c42" stroke="#000000" stroke-width="2"/>
  <circle cx="45" cy="40" r="3" fill="#ff8c42" stroke="#000000" stroke-width="2"/>
  <circle cx="65" cy="45" r="4" fill="#ff8c42" stroke="#000000" stroke-width="2"/>
  
  <!-- Small Solid Orange Dots -->
  <circle cx="50" cy="35" r="2" fill="#ff6b35"/>
  <circle cx="70" cy="35" r="2" fill="#ff6b35"/>
  <circle cx="40" cy="50" r="1.5" fill="#ff6b35"/>
  
  <!-- Cap Gills/Texture Lines -->
  <path d="M30 50 Q40 48 50 50 Q60 48 70 50 Q80 48 90 50" 
        stroke="#000000" stroke-width="1.5" fill="none"/>
  <path d="M32 52 Q42 50 52 52 Q62 50 72 52 Q82 50 88 52" 
        stroke="#000000" stroke-width="1.5" fill="none"/>
  
  <!-- Mushroom Stem -->
  <path d="M50 60 L45 100 Q45 110 55 110 Q65 110 65 100 L60 60 Z" 
        fill="#d4a574" stroke="#000000" stroke-width="2"/>
  
  <!-- Stem Shading -->
  <path d="M50 60 L45 100 Q45 110 55 110 Q65 110 65 100 L60 60 Z" 
        fill="url(#stemGradient)" stroke="#000000" stroke-width="2"/>
  
  <!-- Stem Texture Lines -->
  <path d="M48 70 Q52 70 52 75" stroke="#8b4513" stroke-width="1" fill="none"/>
  <path d="M48 80 Q52 80 52 85" stroke="#8b4513" stroke-width="1" fill="none"/>
  <path d="M48 90 Q52 90 52 95" stroke="#8b4513" stroke-width="1" fill="none"/>
  
  <!-- Stem Base Detail -->
  <path d="M45 100 Q50 105 55 100" stroke="#000000" stroke-width="1" fill="none"/>
  
  <!-- Gradients -->
  <defs>
    <linearGradient id="stemGradient" x1="0%" y1="0%" x2="100%" y2="0%">
      <stop offset="0%" style="stop-color:#d4a574;stop-opacity:1" />
      <stop offset="100%" style="stop-color:#a0522d;stop-opacity:1" />
    </linearGradient>
  </defs>
</svg>

